<svg xmlns="http://www.w3.org/2000/svg" width="200.000000pt" height="200.000000pt" viewBox="0 0 200.000000 200.000000" preserveAspectRatio="xMidYMid meet"><g transform="translate(0.000000,200.000000) scale(0.100000,-0.100000)" fill="#000000" stroke="none"><path d="M474 1951 c-37 -17 -74 -53 -74 -73 0 -4 18 -17 40 -28 22 -11 40 -23 40 -26 0 -2 -7 -16 -16 -29 -22 -34 -3 -90 43 -130 34 -30 35 -32 24 -71 -6 -23 -20 -49 -31 -59 -11 -10 -20 -25 -20 -34 0 -9 -10 -21 -22 -26 -13 -6 -29 -22 -36 -37 -7 -16 -17 -28 -22 -28 -5 0 -20 -11 -34 -25 -20 -20 -35 -25 -75 -25 -51 0 -81 -17 -81 -46 0 -8 14 -40 30 -71 40 -75 40 -93 -4 -93 -39 0 -95 -17 -115 -36 -21 -19 16 -76 59 -91 27 -9 30 -12 12 -12 -44 -2 -38 -31 16 -82 51 -50 87 -61 122 -39 21 13 30 -6 30 -65 0 -30 7 -60 16 -74 9 -12 27 -68 39 -124 26 -113 90 -271 159 -392 25 -44 49 -96 52 -115 11 -60 19 -68 61 -61 28 5 41 13 50 33 7 14 23 28 36 32 12 3 30 19 41 36 10 17 29 35 42 40 24 9 24 10 24 163 l0 153 43 41 c23 22 52 44 64 48 13 3 25 16 29 29 3 14 62 66 154 137 124 94 149 118 150 140 0 23 6 27 53 37 28 7 61 13 72 14 28 4 33 69 8 106 -36 54 -55 132 -31 132 6 0 1 11 -12 25 -17 18 -21 28 -13 36 14 14 48 -3 70 -38 16 -24 20 -25 76 -19 58 6 59 5 53 -17 -17 -56 -18 -103 -2 -116 12 -10 19 -11 30 -2 12 10 16 5 26 -24 8 -23 18 -35 30 -35 27 0 40 30 40 89 0 43 3 51 19 51 28 0 37 17 61 105 23 90 55 130 97 122 29 -5 35 3 27 43 -4 20 -16 36 -30 42 -13 6 -24 20 -26 32 -3 19 -9 21 -65 20 -60 -1 -62 -2 -110 -51 -58 -59 -120 -96 -189 -114 -48 -11 -54 -11 -79 9 -37 29 -53 28 -73 -8 -16 -29 -60 -50 -104 -50 -9 0 -72 16 -140 35 -226 65 -263 88 -212 136 36 34 30 51 -32 84 -57 30 -109 85 -82 85 8 0 23 6 33 14 18 13 19 17 6 51 -13 36 -12 39 12 59 34 28 50 63 43 92 -8 29 -39 38 -108 32 -68 -7 -115 7 -161 48 -43 39 -72 42 -133 15z"></path></g></svg>