<svg xmlns="http://www.w3.org/2000/svg" width="630.000000pt" height="854.000000pt" viewBox="0 0 630.000000 854.000000" preserveAspectRatio="xMidYMid meet"><g transform="translate(0.000000,854.000000) scale(0.100000,-0.100000)" fill="#000000" stroke="none"><path d="M3424 8517 c-60 -16 -156 -62 -310 -149 -202 -116 -393 -164 -614 -155 -107 4 -151 11 -305 52 -99 26 -211 49 -250 52 -127 10 -274 -45 -423 -157 -133 -100 -170 -161 -226 -375 -20 -77 -52 -176 -71 -219 -91 -210 -284 -460 -449 -583 -33 -24 -118 -74 -188 -110 -153 -77 -210 -128 -262 -235 -41 -82 -83 -238 -92 -338 -14 -144 20 -241 169 -483 104 -170 136 -270 144 -458 7 -151 -6 -251 -52 -404 -49 -165 -55 -197 -55 -285 0 -104 20 -181 75 -295 55 -115 110 -195 182 -268 82 -83 148 -112 344 -152 90 -18 182 -41 204 -50 130 -53 245 -134 348 -245 86 -93 121 -149 187 -300 27 -63 62 -131 77 -153 61 -87 178 -157 374 -221 173 -57 282 -79 394 -78 126 0 178 22 318 133 191 153 331 207 568 216 159 6 224 -5 402 -69 155 -56 257 -62 372 -23 148 49 341 174 423 273 80 96 106 158 152 362 52 231 125 374 260 511 86 87 144 127 320 219 208 109 293 214 366 455 24 79 28 107 28 235 1 135 -1 149 -25 206 -14 34 -60 114 -103 177 -90 135 -127 212 -158 322 -19 71 -22 105 -22 295 -1 207 1 221 33 375 40 190 45 321 17 425 -29 106 -93 226 -159 297 -97 104 -155 132 -472 228 -223 68 -378 157 -501 287 -73 78 -118 145 -215 318 -111 199 -221 289 -424 346 -110 31 -300 41 -381 21z m-112 -743 c1265 -174 2065 -1425 1693 -2648 -190 -624 -691 -1138 -1312 -1345 -527 -176 -1085 -135 -1588 116 -558 279 -964 812 -1089 1433 -146 723 112 1478 668 1956 141 122 284 216 448 297 124 61 318 132 433 158 214 49 532 63 747 33z"></path><path d="M2899 7519 c-634 -45 -1214 -447 -1487 -1029 -453 -968 47 -2121 1067 -2457 196 -64 328 -85 546 -87 267 -1 476 39 707 138 218 93 386 206 559 376 317 312 492 685 531 1133 37 430 -94 875 -361 1226 -263 345 -649 586 -1072 671 -82 16 -358 44 -379 38 -3 0 -53 -4 -111 -9z m663 -1961 l-772 -773 -420 420 -420 420 175 175 175 175 245 -245 245 -245 598 598 597 597 175 -175 175 -175 -773 -772z"></path><path d="M5235 2909 c-239 -175 -539 -343 -790 -443 -241 -95 -455 -152 -758 -202 -84 -14 -157 -27 -164 -29 -8 -2 15 -65 64 -177 41 -95 144 -330 227 -523 524 -1207 660 -1515 665 -1515 5 0 112 351 368 1215 36 121 69 224 73 228 4 5 313 -135 686 -311 373 -177 680 -319 681 -318 2 2 -33 88 -78 192 -335 777 -796 1850 -818 1901 -14 35 -30 63 -36 62 -5 0 -59 -36 -120 -80z"></path><path d="M580 2092 c-529 -1175 -561 -1245 -558 -1252 2 -4 306 136 677 312 370 175 677 318 681 318 4 0 32 -84 63 -187 31 -104 120 -402 197 -663 78 -261 151 -506 162 -543 11 -37 22 -66 24 -65 4 4 82 183 421 958 124 283 292 668 374 856 82 187 149 345 149 351 0 6 -38 16 -87 23 -663 91 -1138 271 -1613 611 -57 40 -109 77 -116 81 -7 5 -128 -253 -374 -800z"></path></g></svg>