<svg xmlns="http://www.w3.org/2000/svg" width="200.000000pt" height="200.000000pt" viewBox="0 0 200.000000 200.000000" preserveAspectRatio="xMidYMid meet"><g transform="translate(0.000000,200.000000) scale(0.100000,-0.100000)" fill="#000000" stroke="none"><path d="M922 1848 c-7 -7 -12 -33 -12 -58 0 -46 0 -47 -42 -60 -24 -7 -59 -20 -79 -31 l-36 -18 -28 30 c-16 16 -38 29 -49 29 -24 0 -106 -77 -106 -99 0 -8 14 -30 32 -48 l31 -32 -25 -58 c-14 -32 -28 -66 -31 -75 -5 -14 -17 -18 -50 -18 -60 0 -69 -14 -65 -97 l3 -68 52 -3 c44 -3 53 -7 59 -25 3 -12 18 -48 32 -80 l25 -58 -31 -32 c-18 -18 -32 -40 -32 -48 0 -19 81 -99 100 -99 8 0 29 14 47 32 l32 31 58 -26 c32 -14 67 -27 78 -29 16 -3 21 -13 25 -58 l5 -55 68 -3 c41 -2 74 2 82 8 8 7 15 32 17 58 3 40 6 47 30 53 15 4 47 17 72 30 l46 23 33 -32 c18 -18 39 -32 47 -32 22 0 100 82 100 104 0 11 -14 34 -31 52 l-30 31 20 34 c10 19 25 53 32 77 12 42 13 42 59 42 25 0 51 5 58 12 7 7 12 38 12 69 0 71 -15 89 -76 89 -39 0 -44 3 -50 28 -4 15 -18 49 -31 76 l-25 48 32 33 c40 41 36 69 -15 114 -45 39 -61 39 -101 0 l-32 -31 -48 25 c-27 13 -61 27 -76 31 -25 6 -28 11 -28 50 0 61 -18 76 -89 76 -31 0 -62 -5 -69 -12z m183 -272 c97 -45 154 -127 163 -232 7 -90 -18 -155 -83 -220 -112 -112 -278 -112 -390 0 -179 179 -57 476 195 476 47 0 79 -7 115 -24z"></path><path d="M1025 1390 l-79 -80 -33 32 -33 32 -35 -34 -35 -34 62 -63 c34 -35 67 -63 73 -63 6 0 60 50 120 110 l110 110 -35 35 -35 35 -80 -80z"></path><path d="M1884 1419 c-36 -13 -58 -99 -73 -288 -11 -132 -31 -181 -149 -361 -77 -119 -98 -141 -108 -116 -4 10 28 70 85 163 96 155 106 188 71 223 -22 22 -67 26 -90 7 -9 -7 -61 -71 -117 -142 -55 -72 -125 -151 -155 -175 -73 -60 -124 -124 -151 -190 -20 -50 -22 -68 -19 -215 2 -93 8 -165 14 -172 14 -18 319 -18 336 -1 7 7 12 40 12 79 0 37 4 78 9 91 5 13 82 111 172 218 89 107 170 213 180 235 12 28 26 126 45 322 27 271 28 282 11 301 -22 24 -46 31 -73 21z"></path><path d="M45 1399 c-19 -20 -19 -26 4 -257 27 -287 36 -347 62 -391 11 -19 91 -119 177 -223 86 -103 160 -198 164 -211 3 -12 6 -51 7 -87 1 -37 6 -71 13 -78 18 -18 322 -17 336 1 7 8 12 77 14 173 4 217 -5 241 -146 379 -57 55 -136 143 -176 195 -106 137 -129 160 -162 160 -36 0 -68 -32 -68 -68 0 -18 33 -82 91 -176 55 -90 88 -153 85 -163 -10 -24 -31 -1 -108 117 -116 176 -138 231 -148 351 -11 132 -29 236 -47 272 -17 34 -70 38 -98 6z"></path><path d="M213 1356 c3 -8 11 -55 17 -103 21 -163 18 -154 44 -142 l23 11 -14 76 c-22 122 -32 151 -55 163 -18 10 -20 9 -15 -5z"></path><path d="M1766 1355 c-17 -18 -29 -56 -47 -159 -12 -64 -12 -69 6 -82 17 -13 20 -12 27 3 3 10 7 36 8 58 0 22 7 74 14 115 8 41 12 76 11 78 -1 2 -10 -4 -19 -13z"></path><path d="M310 1294 c1 -5 9 -42 19 -83 14 -58 22 -76 39 -82 27 -10 27 -12 2 71 -11 37 -29 75 -40 85 -11 10 -20 14 -20 9z"></path><path d="M1666 1281 c-9 -10 -25 -48 -36 -85 l-19 -66 25 0 c20 0 24 5 24 28 0 16 7 52 16 81 17 59 15 70 -10 42z"></path></g></svg>