<svg xmlns="http://www.w3.org/2000/svg" width="512.000000pt" height="500.000000pt" viewBox="0 0 512.000000 500.000000" preserveAspectRatio="xMidYMid meet"><g transform="translate(0.000000,500.000000) scale(0.100000,-0.100000)" fill="#000000" stroke="none"><path d="M2395 4976 c-239 -55 -398 -194 -450 -393 -9 -35 -15 -103 -15 -176 0 -112 -2 -123 -32 -190 -27 -60 -33 -87 -36 -164 -6 -141 35 -250 188 -508 94 -157 110 -192 110 -237 1 -70 67 -160 150 -203 52 -27 179 -55 249 -55 229 1 391 112 391 269 0 46 19 85 110 228 155 241 203 360 203 500 0 73 -4 89 -36 158 -36 76 -37 79 -37 199 0 77 -6 143 -15 181 -46 175 -181 307 -380 372 -99 32 -302 41 -400 19z"></path><path d="M1920 3038 c-79 -45 -252 -122 -427 -189 -196 -75 -264 -110 -326 -167 -182 -170 -112 -397 228 -737 140 -140 264 -231 426 -314 464 -237 1014 -237 1478 0 162 83 286 174 426 314 140 140 229 255 282 363 35 71 38 84 38 162 0 100 -15 139 -81 204 -54 55 -142 101 -334 174 -185 71 -343 141 -425 189 l-60 35 -68 -73 c-80 -87 -145 -181 -187 -270 -35 -75 -70 -206 -70 -261 l0 -38 -257 2 -258 3 -7 63 c-10 91 -34 165 -84 262 -43 84 -140 214 -206 277 l-33 32 -55 -31z"></path><path d="M660 2214 c-36 -36 -99 -96 -141 -134 l-75 -69 -179 65 c-98 35 -180 62 -183 59 -3 -2 32 -79 77 -171 44 -91 81 -171 80 -177 0 -7 -53 -79 -118 -162 -66 -82 -118 -151 -117 -152 1 -2 83 8 181 22 98 14 186 25 196 25 12 0 54 -54 126 -159 59 -88 111 -156 114 -153 3 4 21 91 39 193 l33 186 184 53 c101 29 182 57 181 62 -2 5 -77 48 -167 97 l-165 87 3 165 c1 90 4 179 8 197 3 17 1 32 -4 32 -5 0 -38 -30 -73 -66z"></path><path d="M4391 2088 c5 -161 4 -195 -8 -205 -8 -6 -84 -48 -169 -93 -85 -45 -154 -85 -154 -89 0 -4 83 -31 185 -60 102 -30 185 -57 185 -60 0 -18 62 -349 68 -363 5 -13 33 21 115 142 72 106 114 160 126 160 10 0 98 -11 196 -25 98 -14 180 -24 181 -22 1 1 -51 70 -117 152 -65 83 -118 155 -118 161 -1 6 36 87 80 178 45 92 79 169 77 172 -3 2 -85 -25 -183 -60 l-179 -65 -95 89 c-53 49 -116 109 -141 134 -24 25 -47 46 -50 46 -3 0 -2 -87 1 -192z"></path><path d="M1290 1338 c-70 -240 -77 -262 -91 -269 -8 -4 -95 -22 -194 -39 -99 -18 -181 -33 -182 -34 -2 -1 70 -51 158 -111 88 -60 161 -111 163 -114 2 -3 -9 -92 -23 -198 -16 -116 -23 -189 -16 -186 5 4 76 58 157 120 l147 113 177 -85 c98 -47 178 -84 179 -83 2 2 -26 82 -61 178 -35 96 -64 181 -64 188 0 7 59 73 130 146 72 73 130 136 130 141 0 4 -87 4 -194 0 l-193 -7 -95 177 -95 176 -33 -113z"></path><path d="M3703 1276 l-92 -171 -197 4 -198 4 41 -49 c23 -27 82 -89 132 -139 50 -49 91 -96 91 -105 0 -8 -29 -94 -64 -190 -35 -96 -63 -176 -61 -178 1 -1 81 36 179 84 l176 85 155 -120 c86 -67 156 -121 158 -121 1 0 -9 87 -24 193 -14 105 -24 195 -22 198 1 4 75 56 163 115 89 60 157 110 151 112 -5 2 -91 18 -191 36 -99 19 -184 36 -187 40 -3 3 -30 87 -59 187 -29 100 -55 183 -56 184 -2 2 -44 -74 -95 -169z"></path><path d="M2225 1038 c9 -27 85 -351 85 -363 0 -7 -66 -69 -146 -136 -131 -111 -143 -124 -122 -130 13 -4 99 -13 193 -19 96 -6 173 -16 176 -22 4 -6 38 -87 75 -179 38 -93 71 -169 74 -169 3 0 36 76 74 169 37 92 71 173 75 179 3 6 80 16 176 22 94 6 180 15 193 19 21 6 9 19 -122 130 -81 68 -146 130 -146 139 0 10 20 96 45 192 24 96 42 176 41 177 -2 2 -76 -42 -165 -97 -88 -55 -166 -100 -171 -100 -6 0 -82 45 -170 100 -88 55 -162 100 -165 100 -2 0 -2 -6 0 -12z"></path></g></svg>