<svg xmlns="http://www.w3.org/2000/svg" width="512.000000pt" height="512.000000pt" viewBox="0 0 512.000000 512.000000" preserveAspectRatio="xMidYMid meet"><g transform="translate(0.000000,512.000000) scale(0.100000,-0.100000)" fill="#000000" stroke="none"><path d="M2185 5105 c-387 -63 -706 -261 -905 -563 -38 -56 -83 -137 -100 -179 -31 -74 -80 -248 -80 -282 0 -10 -14 -30 -31 -47 -66 -61 -69 -77 -69 -399 0 -320 3 -338 66 -397 51 -47 92 -58 222 -58 l119 0 7 -42 c11 -67 81 -268 122 -349 79 -159 202 -311 328 -406 74 -56 238 -135 326 -157 155 -39 381 -27 541 29 201 70 370 229 483 452 20 40 36 75 36 78 0 3 -20 -8 -44 -24 -116 -80 -279 -142 -433 -165 -72 -10 -98 -19 -122 -39 -37 -30 -97 -42 -186 -35 -106 9 -155 54 -155 143 0 42 5 52 39 86 l39 39 109 0 c101 0 113 -2 147 -25 l36 -25 86 15 c157 28 288 85 406 179 62 49 145 144 181 206 l22 40 118 0 c129 0 171 11 221 58 62 59 66 77 66 395 0 319 -2 332 -64 397 -25 26 -35 48 -41 85 -9 72 -69 246 -113 329 -139 266 -420 501 -717 601 -194 65 -471 91 -660 60z m335 -235 c253 -31 466 -129 638 -294 136 -131 251 -327 268 -459 5 -39 3 -43 -27 -60 -17 -10 -33 -16 -34 -15 -1 2 -12 30 -24 64 -27 73 -100 190 -165 261 -283 313 -878 398 -1313 188 -196 -96 -361 -272 -429 -460 -9 -27 -18 -51 -19 -53 -6 -8 -65 35 -65 48 0 64 65 221 134 324 214 321 631 505 1036 456z"></path><path d="M1882 2145 c-18 -8 -91 -63 -162 -122 l-129 -108 -528 -210 c-456 -182 -533 -215 -564 -246 -135 -134 -217 -467 -263 -1064 -9 -110 -18 -221 -21 -247 l-6 -48 1582 0 1582 0 -50 53 c-261 278 -325 727 -154 1082 95 195 271 373 454 458 26 12 47 24 47 27 0 3 -108 48 -240 100 l-240 95 -135 112 c-224 187 -224 187 -476 -64 l-186 -185 -185 181 c-102 99 -197 185 -212 191 -37 14 -74 12 -114 -5z"></path><path d="M4015 1608 c-271 -23 -537 -216 -651 -473 -65 -149 -84 -364 -44 -521 95 -377 449 -637 833 -611 237 16 460 137 599 325 50 67 112 198 135 282 24 90 24 309 -1 400 -42 154 -149 323 -269 421 -34 28 -107 72 -162 99 -144 70 -272 93 -440 78z m369 -285 c3 -4 -9 -23 -28 -42 l-35 -36 18 -65 18 -65 64 -17 63 -18 33 32 c45 44 63 34 52 -29 -11 -56 -50 -109 -105 -141 -31 -18 -53 -22 -107 -21 l-68 2 -55 -54 c-30 -29 -54 -58 -54 -64 0 -7 11 -22 25 -35 l25 -24 40 39 40 39 47 -46 c37 -37 44 -50 35 -60 -9 -11 13 -39 109 -134 66 -65 125 -127 130 -137 8 -14 -1 -30 -53 -83 -35 -36 -71 -70 -82 -76 -16 -9 -38 9 -151 122 -80 80 -135 128 -139 121 -4 -6 -11 -11 -17 -11 -13 0 -89 70 -89 83 0 6 16 27 35 47 l35 36 -30 29 -30 29 -66 -64 c-64 -64 -65 -66 -59 -106 17 -117 -80 -243 -187 -244 -41 0 -44 18 -8 55 34 36 34 32 9 126 -9 35 -12 37 -76 53 l-66 17 -33 -32 c-56 -55 -73 -11 -29 78 16 32 41 61 67 79 36 25 52 29 116 31 l75 2 66 65 66 66 -95 95 c-52 53 -122 114 -156 136 -45 29 -68 53 -89 90 l-27 51 29 30 30 30 52 -29 c38 -22 61 -46 92 -94 22 -35 82 -106 132 -156 l92 -93 61 61 c60 60 61 61 56 109 -8 88 36 172 111 209 41 21 97 28 111 14z"></path></g></svg>